<svg xmlns="http://www.w3.org/2000/svg" xmlns:xlink="http://www.w3.org/1999/xlink" width="512" zoomAndPan="magnify" viewBox="0 0 384 95.999999" height="128" preserveAspectRatio="xMidYMid meet" version="1.0"><defs><g/></defs><rect x="-38.4" width="460.8" fill="#ffffff" y="-9.6" height="115.199999" fill-opacity="1"/><rect x="-38.4" width="460.8" fill="#ebebe6" y="-9.6" height="115.199999" fill-opacity="1"/><g fill="#2b2b2b" fill-opacity="1"><g transform="translate(36.543329, 45.7384)"><g><path d="M 8.09375 -16.28125 L 7.875 -16.28125 L 8.09375 -14.4375 L 8.09375 0 L 2.34375 0 L 2.34375 -21.875 L 10.46875 -21.875 L 16.65625 -6 L 16.8125 -6 L 23 -21.875 L 31.125 -21.875 L 31.125 0 L 25.375 0 L 25.375 -14.4375 L 25.59375 -16.28125 L 25.375 -16.28125 L 18.8125 0 L 14.65625 0 Z M 8.09375 -16.28125 "/></g></g></g><g fill="#2b2b2b" fill-opacity="1"><g transform="translate(70.137647, 45.7384)"><g><path d="M 8.09375 -21.875 L 8.09375 0 L 2.34375 0 L 2.34375 -21.875 Z M 8.09375 -21.875 "/></g></g></g><g fill="#2b2b2b" fill-opacity="1"><g transform="translate(80.700318, 45.7384)"><g><path d="M 25.5625 -7.65625 C 25.519531 -6.800781 25.382812 -6.023438 25.15625 -5.328125 C 24.925781 -4.628906 24.644531 -4.007812 24.3125 -3.46875 C 23.976562 -2.925781 23.617188 -2.453125 23.234375 -2.046875 C 22.847656 -1.640625 22.46875 -1.3125 22.09375 -1.0625 C 21.007812 -0.3125 19.769531 0.160156 18.375 0.359375 C 16.976562 0.554688 15.582031 0.65625 14.1875 0.65625 C 13.375 0.65625 12.539062 0.625 11.6875 0.5625 C 10.832031 0.5 9.988281 0.367188 9.15625 0.171875 C 8.320312 -0.0234375 7.507812 -0.328125 6.71875 -0.734375 C 5.925781 -1.140625 5.175781 -1.6875 4.46875 -2.375 C 3.800781 -3 3.265625 -3.671875 2.859375 -4.390625 C 2.453125 -5.109375 2.132812 -5.835938 1.90625 -6.578125 C 1.675781 -7.316406 1.519531 -8.046875 1.4375 -8.765625 C 1.351562 -9.484375 1.3125 -10.164062 1.3125 -10.8125 C 1.3125 -11.5 1.351562 -12.207031 1.4375 -12.9375 C 1.519531 -13.664062 1.675781 -14.390625 1.90625 -15.109375 C 2.132812 -15.828125 2.445312 -16.53125 2.84375 -17.21875 C 3.238281 -17.90625 3.738281 -18.5625 4.34375 -19.1875 C 5.050781 -19.894531 5.804688 -20.46875 6.609375 -20.90625 C 7.410156 -21.34375 8.222656 -21.675781 9.046875 -21.90625 C 9.867188 -22.132812 10.675781 -22.285156 11.46875 -22.359375 C 12.257812 -22.429688 13 -22.46875 13.6875 -22.46875 C 14.0625 -22.46875 14.597656 -22.453125 15.296875 -22.421875 C 15.992188 -22.390625 16.75 -22.3125 17.5625 -22.1875 C 18.375 -22.0625 19.191406 -21.867188 20.015625 -21.609375 C 20.835938 -21.347656 21.582031 -20.988281 22.25 -20.53125 C 22.539062 -20.34375 22.863281 -20.082031 23.21875 -19.75 C 23.570312 -19.414062 23.90625 -19.003906 24.21875 -18.515625 C 24.53125 -18.023438 24.800781 -17.453125 25.03125 -16.796875 C 25.257812 -16.140625 25.382812 -15.382812 25.40625 -14.53125 L 19.40625 -14.53125 C 19.363281 -15.070312 19.222656 -15.566406 18.984375 -16.015625 C 18.742188 -16.460938 18.34375 -16.863281 17.78125 -17.21875 C 17.175781 -17.59375 16.554688 -17.832031 15.921875 -17.9375 C 15.285156 -18.039062 14.675781 -18.09375 14.09375 -18.09375 C 13.300781 -18.09375 12.5 -18 11.6875 -17.8125 C 10.875 -17.625 10.101562 -17.144531 9.375 -16.375 C 8.9375 -15.894531 8.523438 -15.21875 8.140625 -14.34375 C 7.753906 -13.46875 7.5625 -12.300781 7.5625 -10.84375 C 7.5625 -9.40625 7.753906 -8.242188 8.140625 -7.359375 C 8.523438 -6.472656 8.957031 -5.789062 9.4375 -5.3125 C 10.164062 -4.601562 10.941406 -4.160156 11.765625 -3.984375 C 12.585938 -3.804688 13.375 -3.71875 14.125 -3.71875 C 14.394531 -3.71875 14.695312 -3.722656 15.03125 -3.734375 C 15.363281 -3.742188 15.695312 -3.78125 16.03125 -3.84375 C 16.363281 -3.90625 16.695312 -3.992188 17.03125 -4.109375 C 17.363281 -4.222656 17.664062 -4.375 17.9375 -4.5625 C 18.289062 -4.8125 18.640625 -5.191406 18.984375 -5.703125 C 19.328125 -6.210938 19.519531 -6.863281 19.5625 -7.65625 Z M 25.5625 -7.65625 "/></g></g></g><g fill="#2b2b2b" fill-opacity="1"><g transform="translate(107.138265, 45.7384)"><g><path d="M 8.09375 0 L 2.34375 0 L 2.34375 -21.875 L 8.09375 -21.875 L 8.09375 -13.6875 L 18.46875 -13.6875 L 18.46875 -21.875 L 24.21875 -21.875 L 24.21875 0 L 18.46875 0 L 18.46875 -9.3125 L 8.09375 -9.3125 Z M 8.09375 0 "/></g></g></g><g fill="#2b2b2b" fill-opacity="1"><g transform="translate(133.826209, 45.7384)"><g><path d="M 15.71875 -8.1875 L 12.34375 -16.375 L 9.03125 -8.1875 Z M 5.71875 0 L -0.28125 0 L 9.53125 -21.875 L 15.1875 -21.875 L 25 0 L 19 0 L 17.09375 -4.4375 L 7.625 -4.4375 Z M 5.71875 0 "/></g></g></g><g fill="#2b2b2b" fill-opacity="1"><g transform="translate(158.51412, 45.7384)"><g><path d="M 20.09375 -13.1875 L 20.09375 -9.0625 L 8.09375 -9.0625 L 8.09375 -4.375 L 22.625 -4.375 L 22.625 0 L 2.34375 0 L 2.34375 -21.875 L 22.28125 -21.875 L 22.28125 -17.5 L 8.09375 -17.5 L 8.09375 -13.1875 Z M 20.09375 -13.1875 "/></g></g></g><g fill="#2b2b2b" fill-opacity="1"><g transform="translate(181.889507, 45.7384)"><g><path d="M 20.0625 0 L 2.34375 0 L 2.34375 -21.875 L 8.09375 -21.875 L 8.09375 -4.4375 L 20.0625 -4.4375 Z M 20.0625 0 "/></g></g></g><g fill="#2b2b2b" fill-opacity="1"><g transform="translate(202.38985, 45.7384)"><g/></g></g><g fill="#2b2b2b" fill-opacity="1"><g transform="translate(209.671226, 45.7384)"><g><path d="M 7.09375 -7.09375 L 7.09375 -6.96875 C 7.09375 -6.445312 7.175781 -6.019531 7.34375 -5.6875 C 7.507812 -5.351562 7.707031 -5.082031 7.9375 -4.875 C 8.207031 -4.601562 8.53125 -4.390625 8.90625 -4.234375 C 9.28125 -4.078125 9.660156 -3.957031 10.046875 -3.875 C 10.429688 -3.789062 10.804688 -3.738281 11.171875 -3.71875 C 11.535156 -3.695312 11.863281 -3.6875 12.15625 -3.6875 C 12.988281 -3.6875 13.644531 -3.726562 14.125 -3.8125 C 14.601562 -3.894531 14.988281 -4.019531 15.28125 -4.1875 C 15.757812 -4.4375 16.117188 -4.769531 16.359375 -5.1875 C 16.597656 -5.601562 16.71875 -6 16.71875 -6.375 C 16.71875 -6.625 16.628906 -6.929688 16.453125 -7.296875 C 16.273438 -7.660156 15.851562 -7.976562 15.1875 -8.25 C 15.019531 -8.3125 14.804688 -8.378906 14.546875 -8.453125 C 14.285156 -8.523438 14.007812 -8.59375 13.71875 -8.65625 C 13.425781 -8.71875 13.140625 -8.773438 12.859375 -8.828125 C 12.578125 -8.878906 12.34375 -8.925781 12.15625 -8.96875 L 9 -9.46875 C 8.394531 -9.550781 7.78125 -9.648438 7.15625 -9.765625 C 6.53125 -9.878906 5.925781 -10.023438 5.34375 -10.203125 C 4.757812 -10.378906 4.21875 -10.597656 3.71875 -10.859375 C 3.21875 -11.117188 2.789062 -11.445312 2.4375 -11.84375 C 2.1875 -12.132812 1.921875 -12.554688 1.640625 -13.109375 C 1.359375 -13.660156 1.21875 -14.40625 1.21875 -15.34375 C 1.21875 -16.613281 1.46875 -17.707031 1.96875 -18.625 C 2.46875 -19.539062 3.21875 -20.3125 4.21875 -20.9375 C 4.757812 -21.269531 5.332031 -21.539062 5.9375 -21.75 C 6.539062 -21.957031 7.148438 -22.117188 7.765625 -22.234375 C 8.378906 -22.347656 8.992188 -22.421875 9.609375 -22.453125 C 10.222656 -22.484375 10.8125 -22.5 11.375 -22.5 C 13.351562 -22.5 14.9375 -22.363281 16.125 -22.09375 C 17.3125 -21.820312 18.269531 -21.46875 19 -21.03125 C 19.644531 -20.65625 20.164062 -20.242188 20.5625 -19.796875 C 20.957031 -19.347656 21.257812 -18.890625 21.46875 -18.421875 C 21.675781 -17.953125 21.8125 -17.488281 21.875 -17.03125 C 21.9375 -16.570312 21.957031 -16.132812 21.9375 -15.71875 L 16.125 -15.71875 C 16.082031 -16.113281 15.972656 -16.484375 15.796875 -16.828125 C 15.617188 -17.171875 15.289062 -17.46875 14.8125 -17.71875 C 14.5625 -17.84375 14.273438 -17.945312 13.953125 -18.03125 C 13.628906 -18.113281 13.304688 -18.175781 12.984375 -18.21875 C 12.660156 -18.257812 12.347656 -18.285156 12.046875 -18.296875 C 11.742188 -18.304688 11.5 -18.3125 11.3125 -18.3125 C 10.769531 -18.3125 10.226562 -18.269531 9.6875 -18.1875 C 9.144531 -18.101562 8.6875 -17.945312 8.3125 -17.71875 C 7.957031 -17.488281 7.6875 -17.207031 7.5 -16.875 C 7.3125 -16.539062 7.21875 -16.1875 7.21875 -15.8125 C 7.21875 -15.3125 7.390625 -14.941406 7.734375 -14.703125 C 8.078125 -14.460938 8.425781 -14.28125 8.78125 -14.15625 C 8.925781 -14.09375 9.097656 -14.035156 9.296875 -13.984375 C 9.492188 -13.929688 9.734375 -13.875 10.015625 -13.8125 C 10.296875 -13.75 10.640625 -13.679688 11.046875 -13.609375 C 11.453125 -13.535156 11.945312 -13.457031 12.53125 -13.375 L 15.03125 -12.96875 C 16.007812 -12.800781 17 -12.59375 18 -12.34375 C 19 -12.09375 19.863281 -11.695312 20.59375 -11.15625 C 21.507812 -10.46875 22.109375 -9.691406 22.390625 -8.828125 C 22.671875 -7.960938 22.8125 -7.144531 22.8125 -6.375 C 22.8125 -5.039062 22.554688 -3.945312 22.046875 -3.09375 C 21.535156 -2.238281 20.9375 -1.5625 20.25 -1.0625 C 19.957031 -0.851562 19.601562 -0.648438 19.1875 -0.453125 C 18.769531 -0.253906 18.257812 -0.078125 17.65625 0.078125 C 17.050781 0.234375 16.328125 0.363281 15.484375 0.46875 C 14.640625 0.570312 13.65625 0.625 12.53125 0.625 C 11.65625 0.625 10.765625 0.597656 9.859375 0.546875 C 8.953125 0.492188 8.078125 0.382812 7.234375 0.21875 C 6.390625 0.0507812 5.59375 -0.203125 4.84375 -0.546875 C 4.09375 -0.890625 3.4375 -1.351562 2.875 -1.9375 C 2.476562 -2.351562 2.160156 -2.789062 1.921875 -3.25 C 1.679688 -3.707031 1.5 -4.15625 1.375 -4.59375 C 1.25 -5.03125 1.171875 -5.457031 1.140625 -5.875 C 1.109375 -6.289062 1.09375 -6.65625 1.09375 -6.96875 L 1.09375 -7.09375 Z M 7.09375 -7.09375 "/></g></g></g><g fill="#2b2b2b" fill-opacity="1"><g transform="translate(233.640379, 45.7384)"><g><path d="M 0.40625 -17.5 L 0.40625 -21.875 L 21.40625 -21.875 L 21.40625 -17.5 L 13.78125 -17.5 L 13.78125 0 L 8.03125 0 L 8.03125 -17.5 Z M 0.40625 -17.5 "/></g></g></g><g fill="#2b2b2b" fill-opacity="1"><g transform="translate(255.484493, 45.7384)"><g><path d="M 23.8125 -8.59375 C 23.8125 -8.15625 23.796875 -7.664062 23.765625 -7.125 C 23.734375 -6.582031 23.644531 -6.019531 23.5 -5.4375 C 23.351562 -4.851562 23.128906 -4.265625 22.828125 -3.671875 C 22.523438 -3.078125 22.113281 -2.519531 21.59375 -2 C 21.007812 -1.414062 20.375 -0.953125 19.6875 -0.609375 C 19 -0.265625 18.28125 -0.0078125 17.53125 0.15625 C 16.78125 0.320312 16.015625 0.429688 15.234375 0.484375 C 14.453125 0.535156 13.6875 0.5625 12.9375 0.5625 C 12.1875 0.5625 11.421875 0.535156 10.640625 0.484375 C 9.859375 0.429688 9.09375 0.320312 8.34375 0.15625 C 7.59375 -0.0078125 6.875 -0.265625 6.1875 -0.609375 C 5.5 -0.953125 4.863281 -1.414062 4.28125 -2 C 3.757812 -2.519531 3.347656 -3.078125 3.046875 -3.671875 C 2.742188 -4.265625 2.519531 -4.851562 2.375 -5.4375 C 2.226562 -6.019531 2.140625 -6.582031 2.109375 -7.125 C 2.078125 -7.664062 2.0625 -8.15625 2.0625 -8.59375 L 2.0625 -21.875 L 7.8125 -21.875 L 7.8125 -9.1875 C 7.8125 -8.9375 7.816406 -8.640625 7.828125 -8.296875 C 7.835938 -7.953125 7.882812 -7.597656 7.96875 -7.234375 C 8.050781 -6.867188 8.175781 -6.503906 8.34375 -6.140625 C 8.507812 -5.773438 8.738281 -5.445312 9.03125 -5.15625 C 9.300781 -4.863281 9.613281 -4.640625 9.96875 -4.484375 C 10.320312 -4.328125 10.675781 -4.207031 11.03125 -4.125 C 11.382812 -4.039062 11.726562 -3.988281 12.0625 -3.96875 C 12.394531 -3.945312 12.6875 -3.9375 12.9375 -3.9375 C 13.1875 -3.9375 13.476562 -3.945312 13.8125 -3.96875 C 14.144531 -3.988281 14.488281 -4.039062 14.84375 -4.125 C 15.195312 -4.207031 15.546875 -4.328125 15.890625 -4.484375 C 16.234375 -4.640625 16.550781 -4.863281 16.84375 -5.15625 C 17.132812 -5.445312 17.363281 -5.773438 17.53125 -6.140625 C 17.695312 -6.503906 17.816406 -6.867188 17.890625 -7.234375 C 17.960938 -7.597656 18.007812 -7.953125 18.03125 -8.296875 C 18.050781 -8.640625 18.0625 -8.9375 18.0625 -9.1875 L 18.0625 -21.875 L 23.8125 -21.875 Z M 23.8125 -8.59375 "/></g></g></g><g fill="#2b2b2b" fill-opacity="1"><g transform="translate(281.484928, 45.7384)"><g><path d="M 8.09375 -4.375 L 11.40625 -4.375 C 11.78125 -4.375 12.207031 -4.382812 12.6875 -4.40625 C 13.164062 -4.425781 13.664062 -4.484375 14.1875 -4.578125 C 14.707031 -4.671875 15.21875 -4.820312 15.71875 -5.03125 C 16.21875 -5.238281 16.6875 -5.519531 17.125 -5.875 C 17.664062 -6.332031 18.144531 -6.976562 18.5625 -7.8125 C 18.976562 -8.644531 19.1875 -9.695312 19.1875 -10.96875 C 19.1875 -12.300781 18.976562 -13.375 18.5625 -14.1875 C 18.144531 -15 17.707031 -15.601562 17.25 -16 C 16.832031 -16.351562 16.382812 -16.632812 15.90625 -16.84375 C 15.425781 -17.050781 14.945312 -17.203125 14.46875 -17.296875 C 13.988281 -17.390625 13.515625 -17.445312 13.046875 -17.46875 C 12.578125 -17.488281 12.144531 -17.5 11.75 -17.5 L 8.09375 -17.5 Z M 12.5 -21.875 C 13.375 -21.875 14.257812 -21.828125 15.15625 -21.734375 C 16.050781 -21.640625 16.925781 -21.476562 17.78125 -21.25 C 18.632812 -21.019531 19.453125 -20.707031 20.234375 -20.3125 C 21.015625 -19.914062 21.71875 -19.414062 22.34375 -18.8125 C 22.96875 -18.207031 23.472656 -17.554688 23.859375 -16.859375 C 24.242188 -16.160156 24.539062 -15.46875 24.75 -14.78125 C 24.957031 -14.09375 25.09375 -13.425781 25.15625 -12.78125 C 25.21875 -12.132812 25.25 -11.550781 25.25 -11.03125 C 25.25 -9.96875 25.160156 -9.015625 24.984375 -8.171875 C 24.804688 -7.328125 24.578125 -6.578125 24.296875 -5.921875 C 24.015625 -5.265625 23.703125 -4.695312 23.359375 -4.21875 C 23.015625 -3.738281 22.675781 -3.332031 22.34375 -3 C 21.613281 -2.269531 20.800781 -1.707031 19.90625 -1.3125 C 19.007812 -0.914062 18.097656 -0.617188 17.171875 -0.421875 C 16.242188 -0.222656 15.332031 -0.101562 14.4375 -0.0625 C 13.539062 -0.0195312 12.71875 0 11.96875 0 L 2.34375 0 L 2.34375 -21.875 Z M 12.5 -21.875 "/></g></g></g><g fill="#2b2b2b" fill-opacity="1"><g transform="translate(308.141624, 45.7384)"><g><path d="M 8.09375 -21.875 L 8.09375 0 L 2.34375 0 L 2.34375 -21.875 Z M 8.09375 -21.875 "/></g></g></g><g fill="#2b2b2b" fill-opacity="1"><g transform="translate(318.704281, 45.7384)"><g><path d="M 14.3125 -18.125 C 13.582031 -18.125 12.796875 -18.023438 11.953125 -17.828125 C 11.109375 -17.628906 10.3125 -17.164062 9.5625 -16.4375 C 9.101562 -16 8.742188 -15.523438 8.484375 -15.015625 C 8.222656 -14.503906 8.023438 -14 7.890625 -13.5 C 7.753906 -13 7.664062 -12.523438 7.625 -12.078125 C 7.582031 -11.628906 7.5625 -11.25 7.5625 -10.9375 C 7.5625 -10.625 7.582031 -10.242188 7.625 -9.796875 C 7.664062 -9.347656 7.753906 -8.875 7.890625 -8.375 C 8.023438 -7.875 8.222656 -7.367188 8.484375 -6.859375 C 8.742188 -6.347656 9.101562 -5.875 9.5625 -5.4375 C 10.3125 -4.707031 11.109375 -4.242188 11.953125 -4.046875 C 12.796875 -3.847656 13.582031 -3.75 14.3125 -3.75 C 15.039062 -3.75 15.828125 -3.847656 16.671875 -4.046875 C 17.515625 -4.242188 18.3125 -4.707031 19.0625 -5.4375 C 19.519531 -5.875 19.878906 -6.347656 20.140625 -6.859375 C 20.398438 -7.367188 20.597656 -7.875 20.734375 -8.375 C 20.867188 -8.875 20.957031 -9.347656 21 -9.796875 C 21.039062 -10.242188 21.0625 -10.625 21.0625 -10.9375 C 21.0625 -11.25 21.039062 -11.628906 21 -12.078125 C 20.957031 -12.523438 20.867188 -13 20.734375 -13.5 C 20.597656 -14 20.398438 -14.503906 20.140625 -15.015625 C 19.878906 -15.523438 19.519531 -16 19.0625 -16.4375 C 18.3125 -17.164062 17.515625 -17.628906 16.671875 -17.828125 C 15.828125 -18.023438 15.039062 -18.125 14.3125 -18.125 Z M 27.3125 -10.9375 C 27.3125 -10.289062 27.269531 -9.613281 27.1875 -8.90625 C 27.101562 -8.195312 26.9375 -7.484375 26.6875 -6.765625 C 26.4375 -6.046875 26.085938 -5.328125 25.640625 -4.609375 C 25.191406 -3.890625 24.601562 -3.207031 23.875 -2.5625 C 23.457031 -2.1875 22.960938 -1.8125 22.390625 -1.4375 C 21.816406 -1.0625 21.140625 -0.722656 20.359375 -0.421875 C 19.578125 -0.117188 18.6875 0.128906 17.6875 0.328125 C 16.6875 0.523438 15.5625 0.625 14.3125 0.625 C 13.0625 0.625 11.9375 0.523438 10.9375 0.328125 C 9.9375 0.128906 9.046875 -0.117188 8.265625 -0.421875 C 7.484375 -0.722656 6.804688 -1.0625 6.234375 -1.4375 C 5.660156 -1.8125 5.164062 -2.1875 4.75 -2.5625 C 4.019531 -3.207031 3.429688 -3.890625 2.984375 -4.609375 C 2.535156 -5.328125 2.1875 -6.046875 1.9375 -6.765625 C 1.6875 -7.484375 1.519531 -8.195312 1.4375 -8.90625 C 1.351562 -9.613281 1.3125 -10.289062 1.3125 -10.9375 C 1.3125 -11.582031 1.351562 -12.257812 1.4375 -12.96875 C 1.519531 -13.675781 1.6875 -14.390625 1.9375 -15.109375 C 2.1875 -15.828125 2.535156 -16.539062 2.984375 -17.25 C 3.429688 -17.957031 4.019531 -18.644531 4.75 -19.3125 C 5.164062 -19.6875 5.660156 -20.0625 6.234375 -20.4375 C 6.804688 -20.8125 7.484375 -21.148438 8.265625 -21.453125 C 9.046875 -21.753906 9.9375 -22.003906 10.9375 -22.203125 C 11.9375 -22.398438 13.0625 -22.5 14.3125 -22.5 C 15.5625 -22.5 16.6875 -22.398438 17.6875 -22.203125 C 18.6875 -22.003906 19.578125 -21.753906 20.359375 -21.453125 C 21.140625 -21.148438 21.816406 -20.8125 22.390625 -20.4375 C 22.960938 -20.0625 23.457031 -19.6875 23.875 -19.3125 C 24.601562 -18.644531 25.191406 -17.957031 25.640625 -17.25 C 26.085938 -16.539062 26.4375 -15.828125 26.6875 -15.109375 C 26.9375 -14.390625 27.101562 -13.675781 27.1875 -12.96875 C 27.269531 -12.257812 27.3125 -11.582031 27.3125 -10.9375 Z M 27.3125 -10.9375 "/></g></g></g><g fill="#2b2b2b" fill-opacity="1"><g transform="translate(87.045084, 71.436255)"><g><path d="M 4 0 L 1.5625 0 L 1.5625 -12.171875 L 4 -12.171875 Z M 4 0 "/></g></g></g><g fill="#2b2b2b" fill-opacity="1"><g transform="translate(91.507438, 71.436255)"><g><path d="M 12.265625 0 L 8.921875 0 L 3.921875 -9.25 C 3.972656 -8.132812 4 -6.882812 4 -5.5 L 4 0 L 1.5625 0 L 1.5625 -12.171875 L 4.796875 -12.171875 L 9.90625 -2.75 C 9.851562 -3.84375 9.828125 -5.117188 9.828125 -6.578125 L 9.828125 -12.171875 L 12.25 -12.171875 Z M 12.265625 0 "/></g></g></g><g fill="#2b2b2b" fill-opacity="1"><g transform="translate(104.225188, 71.436255)"><g><path d="M 12.265625 0 L 8.921875 0 L 3.921875 -9.25 C 3.972656 -8.132812 4 -6.882812 4 -5.5 L 4 0 L 1.5625 0 L 1.5625 -12.171875 L 4.796875 -12.171875 L 9.90625 -2.75 C 9.851562 -3.84375 9.828125 -5.117188 9.828125 -6.578125 L 9.828125 -12.171875 L 12.25 -12.171875 Z M 12.265625 0 "/></g></g></g><g fill="#2b2b2b" fill-opacity="1"><g transform="translate(116.942939, 71.436255)"><g><path d="M 6.921875 -12.421875 C 8.773438 -12.421875 10.238281 -11.847656 11.3125 -10.703125 C 12.394531 -9.554688 12.9375 -8.019531 12.9375 -6.09375 C 12.9375 -4.164062 12.394531 -2.625 11.3125 -1.46875 C 10.238281 -0.320312 8.769531 0.25 6.90625 0.25 C 5.050781 0.25 3.585938 -0.320312 2.515625 -1.46875 C 1.441406 -2.625 0.90625 -4.164062 0.90625 -6.09375 C 0.90625 -8.019531 1.4375 -9.554688 2.5 -10.703125 C 3.570312 -11.847656 5.046875 -12.421875 6.921875 -12.421875 Z M 4.359375 -2.75 C 4.984375 -1.957031 5.832031 -1.5625 6.90625 -1.5625 C 7.988281 -1.5625 8.835938 -1.960938 9.453125 -2.765625 C 10.066406 -3.566406 10.375 -4.675781 10.375 -6.09375 C 10.375 -7.507812 10.066406 -8.613281 9.453125 -9.40625 C 8.835938 -10.207031 7.992188 -10.609375 6.921875 -10.609375 C 5.828125 -10.609375 4.972656 -10.207031 4.359375 -9.40625 C 3.742188 -8.613281 3.4375 -7.503906 3.4375 -6.078125 C 3.4375 -4.660156 3.742188 -3.550781 4.359375 -2.75 Z M 4.359375 -2.75 "/></g></g></g><g fill="#2b2b2b" fill-opacity="1"><g transform="translate(129.74888, 71.436255)"><g><path d="M 7.921875 0 L 4.875 0 L 0.5625 -12.171875 L 3.203125 -12.171875 L 6.4375 -1.875 L 9.71875 -12.171875 L 12.3125 -12.171875 Z M 7.921875 0 "/></g></g></g><g fill="#2b2b2b" fill-opacity="1"><g transform="translate(141.196571, 71.436255)"><g><path d="M 8.171875 -3.671875 L 4.078125 -3.671875 L 2.859375 0 L 0.265625 0 L 4.65625 -12.171875 L 7.703125 -12.171875 L 12.015625 0 L 9.359375 0 Z M 6.140625 -10.09375 L 4.6875 -5.59375 L 7.546875 -5.59375 Z M 6.140625 -10.09375 "/></g></g></g><g fill="#2b2b2b" fill-opacity="1"><g transform="translate(152.432583, 71.436255)"><g><path d="M 11.09375 -10.265625 L 6.96875 -10.265625 L 6.96875 0 L 4.53125 0 L 4.53125 -10.265625 L 0.40625 -10.265625 L 0.40625 -12.171875 L 11.09375 -12.171875 Z M 11.09375 -10.265625 "/></g></g></g><g fill="#2b2b2b" fill-opacity="1"><g transform="translate(162.73369, 71.436255)"><g><path d="M 4 0 L 1.5625 0 L 1.5625 -12.171875 L 4 -12.171875 Z M 4 0 "/></g></g></g><g fill="#2b2b2b" fill-opacity="1"><g transform="translate(167.196043, 71.436255)"><g><path d="M 6.921875 -12.421875 C 8.773438 -12.421875 10.238281 -11.847656 11.3125 -10.703125 C 12.394531 -9.554688 12.9375 -8.019531 12.9375 -6.09375 C 12.9375 -4.164062 12.394531 -2.625 11.3125 -1.46875 C 10.238281 -0.320312 8.769531 0.25 6.90625 0.25 C 5.050781 0.25 3.585938 -0.320312 2.515625 -1.46875 C 1.441406 -2.625 0.90625 -4.164062 0.90625 -6.09375 C 0.90625 -8.019531 1.4375 -9.554688 2.5 -10.703125 C 3.570312 -11.847656 5.046875 -12.421875 6.921875 -12.421875 Z M 4.359375 -2.75 C 4.984375 -1.957031 5.832031 -1.5625 6.90625 -1.5625 C 7.988281 -1.5625 8.835938 -1.960938 9.453125 -2.765625 C 10.066406 -3.566406 10.375 -4.675781 10.375 -6.09375 C 10.375 -7.507812 10.066406 -8.613281 9.453125 -9.40625 C 8.835938 -10.207031 7.992188 -10.609375 6.921875 -10.609375 C 5.828125 -10.609375 4.972656 -10.207031 4.359375 -9.40625 C 3.742188 -8.613281 3.4375 -7.503906 3.4375 -6.078125 C 3.4375 -4.660156 3.742188 -3.550781 4.359375 -2.75 Z M 4.359375 -2.75 "/></g></g></g><g fill="#2b2b2b" fill-opacity="1"><g transform="translate(180.001984, 71.436255)"><g><path d="M 12.265625 0 L 8.921875 0 L 3.921875 -9.25 C 3.972656 -8.132812 4 -6.882812 4 -5.5 L 4 0 L 1.5625 0 L 1.5625 -12.171875 L 4.796875 -12.171875 L 9.90625 -2.75 C 9.851562 -3.84375 9.828125 -5.117188 9.828125 -6.578125 L 9.828125 -12.171875 L 12.25 -12.171875 Z M 12.265625 0 "/></g></g></g><g fill="#2b2b2b" fill-opacity="1"><g transform="translate(192.719733, 71.436255)"><g/></g></g><g fill="#2b2b2b" fill-opacity="1"><g transform="translate(195.453397, 71.436255)"><g><path d="M 8.171875 -3.671875 L 4.078125 -3.671875 L 2.859375 0 L 0.265625 0 L 4.65625 -12.171875 L 7.703125 -12.171875 L 12.015625 0 L 9.359375 0 Z M 6.140625 -10.09375 L 4.6875 -5.59375 L 7.546875 -5.59375 Z M 6.140625 -10.09375 "/></g></g></g><g fill="#2b2b2b" fill-opacity="1"><g transform="translate(206.689406, 71.436255)"><g><path d="M 12.265625 0 L 8.921875 0 L 3.921875 -9.25 C 3.972656 -8.132812 4 -6.882812 4 -5.5 L 4 0 L 1.5625 0 L 1.5625 -12.171875 L 4.796875 -12.171875 L 9.90625 -2.75 C 9.851562 -3.84375 9.828125 -5.117188 9.828125 -6.578125 L 9.828125 -12.171875 L 12.25 -12.171875 Z M 12.265625 0 "/></g></g></g><g fill="#2b2b2b" fill-opacity="1"><g transform="translate(219.407155, 71.436255)"><g><path d="M 7.328125 -12.09375 C 8.828125 -11.925781 10.035156 -11.351562 10.953125 -10.375 C 11.867188 -9.394531 12.328125 -8.019531 12.328125 -6.25 C 12.328125 -4.457031 11.859375 -3.019531 10.921875 -1.9375 C 9.984375 -0.863281 8.769531 -0.242188 7.28125 -0.078125 C 6.875 -0.0234375 6.359375 0 5.734375 0 L 1.5625 0 L 1.5625 -12.171875 L 5.765625 -12.171875 C 6.390625 -12.171875 6.910156 -12.144531 7.328125 -12.09375 Z M 6.734375 -1.96875 C 7.660156 -2.09375 8.394531 -2.523438 8.9375 -3.265625 C 9.476562 -4.003906 9.75 -4.984375 9.75 -6.203125 C 9.75 -7.378906 9.484375 -8.304688 8.953125 -8.984375 C 8.429688 -9.671875 7.710938 -10.078125 6.796875 -10.203125 C 6.429688 -10.242188 5.992188 -10.265625 5.484375 -10.265625 L 4 -10.265625 L 4 -1.921875 L 5.453125 -1.921875 C 6.046875 -1.921875 6.472656 -1.9375 6.734375 -1.96875 Z M 6.734375 -1.96875 "/></g></g></g><g fill="#2b2b2b" fill-opacity="1"><g transform="translate(231.613357, 71.436255)"><g/></g></g><g fill="#2b2b2b" fill-opacity="1"><g transform="translate(234.347028, 71.436255)"><g><path d="M 7.328125 -12.09375 C 8.828125 -11.925781 10.035156 -11.351562 10.953125 -10.375 C 11.867188 -9.394531 12.328125 -8.019531 12.328125 -6.25 C 12.328125 -4.457031 11.859375 -3.019531 10.921875 -1.9375 C 9.984375 -0.863281 8.769531 -0.242188 7.28125 -0.078125 C 6.875 -0.0234375 6.359375 0 5.734375 0 L 1.5625 0 L 1.5625 -12.171875 L 5.765625 -12.171875 C 6.390625 -12.171875 6.910156 -12.144531 7.328125 -12.09375 Z M 6.734375 -1.96875 C 7.660156 -2.09375 8.394531 -2.523438 8.9375 -3.265625 C 9.476562 -4.003906 9.75 -4.984375 9.75 -6.203125 C 9.75 -7.378906 9.484375 -8.304688 8.953125 -8.984375 C 8.429688 -9.671875 7.710938 -10.078125 6.796875 -10.203125 C 6.429688 -10.242188 5.992188 -10.265625 5.484375 -10.265625 L 4 -10.265625 L 4 -1.921875 L 5.453125 -1.921875 C 6.046875 -1.921875 6.472656 -1.9375 6.734375 -1.96875 Z M 6.734375 -1.96875 "/></g></g></g><g fill="#2b2b2b" fill-opacity="1"><g transform="translate(246.55323, 71.436255)"><g><path d="M 10.359375 -1.921875 L 10.359375 0 L 1.5625 0 L 1.5625 -12.171875 L 10.171875 -12.171875 L 10.171875 -10.265625 L 4 -10.265625 L 4 -7.0625 L 9.734375 -7.0625 L 9.734375 -5.140625 L 4 -5.140625 L 4 -1.921875 Z M 10.359375 -1.921875 "/></g></g></g><g fill="#2b2b2b" fill-opacity="1"><g transform="translate(256.730869, 71.436255)"><g><path d="M 5.609375 -12.421875 C 6.992188 -12.421875 8.050781 -12.070312 8.78125 -11.375 C 9.519531 -10.6875 9.960938 -9.757812 10.109375 -8.59375 L 7.625 -8.59375 C 7.550781 -9.226562 7.335938 -9.722656 6.984375 -10.078125 C 6.628906 -10.429688 6.140625 -10.609375 5.515625 -10.609375 C 5.015625 -10.609375 4.601562 -10.484375 4.28125 -10.234375 C 3.96875 -9.984375 3.8125 -9.625 3.8125 -9.15625 C 3.8125 -8.632812 4 -8.226562 4.375 -7.9375 C 4.757812 -7.644531 5.4375 -7.382812 6.40625 -7.15625 C 7.726562 -6.851562 8.703125 -6.390625 9.328125 -5.765625 C 9.960938 -5.140625 10.28125 -4.335938 10.28125 -3.359375 C 10.28125 -2.242188 9.84375 -1.363281 8.96875 -0.71875 C 8.101562 -0.0703125 7.039062 0.25 5.78125 0.25 C 4.300781 0.25 3.117188 -0.078125 2.234375 -0.734375 C 1.359375 -1.390625 0.859375 -2.34375 0.734375 -3.59375 L 3.234375 -3.59375 C 3.359375 -2.945312 3.648438 -2.445312 4.109375 -2.09375 C 4.566406 -1.738281 5.113281 -1.5625 5.75 -1.5625 C 6.3125 -1.5625 6.785156 -1.703125 7.171875 -1.984375 C 7.554688 -2.273438 7.75 -2.648438 7.75 -3.109375 C 7.75 -3.617188 7.5625 -4.03125 7.1875 -4.34375 C 6.820312 -4.664062 6.195312 -4.9375 5.3125 -5.15625 C 3.945312 -5.476562 2.925781 -5.910156 2.25 -6.453125 C 1.582031 -7.003906 1.25 -7.804688 1.25 -8.859375 C 1.25 -9.941406 1.671875 -10.804688 2.515625 -11.453125 C 3.367188 -12.097656 4.398438 -12.421875 5.609375 -12.421875 Z M 5.609375 -12.421875 "/></g></g></g><g fill="#2b2b2b" fill-opacity="1"><g transform="translate(266.767391, 71.436255)"><g><path d="M 4 0 L 1.5625 0 L 1.5625 -12.171875 L 4 -12.171875 Z M 4 0 "/></g></g></g><g fill="#2b2b2b" fill-opacity="1"><g transform="translate(271.229752, 71.436255)"><g><path d="M 7.140625 -6.203125 L 12.046875 -6.203125 L 12.046875 0 L 10.09375 0 L 9.9375 -1.96875 L 9.390625 -0.734375 C 8.710938 -0.078125 7.722656 0.25 6.421875 0.25 C 4.722656 0.25 3.378906 -0.3125 2.390625 -1.4375 C 1.398438 -2.5625 0.90625 -4.085938 0.90625 -6.015625 C 0.90625 -7.960938 1.46875 -9.515625 2.59375 -10.671875 C 3.71875 -11.835938 5.148438 -12.421875 6.890625 -12.421875 C 8.484375 -12.421875 9.722656 -12.035156 10.609375 -11.265625 C 11.503906 -10.492188 12.019531 -9.476562 12.15625 -8.21875 L 12.171875 -8.046875 L 9.734375 -8.046875 L 9.703125 -8.21875 C 9.378906 -9.8125 8.429688 -10.609375 6.859375 -10.609375 C 5.859375 -10.609375 5.039062 -10.207031 4.40625 -9.40625 C 3.78125 -8.601562 3.46875 -7.519531 3.46875 -6.15625 C 3.46875 -4.6875 3.773438 -3.550781 4.390625 -2.75 C 5.003906 -1.957031 5.804688 -1.5625 6.796875 -1.5625 C 7.578125 -1.5625 8.226562 -1.800781 8.75 -2.28125 C 9.28125 -2.769531 9.601562 -3.441406 9.71875 -4.296875 L 7.140625 -4.296875 Z M 7.140625 -6.203125 "/></g></g></g><g fill="#2b2b2b" fill-opacity="1"><g transform="translate(283.541787, 71.436255)"><g><path d="M 12.265625 0 L 8.921875 0 L 3.921875 -9.25 C 3.972656 -8.132812 4 -6.882812 4 -5.5 L 4 0 L 1.5625 0 L 1.5625 -12.171875 L 4.796875 -12.171875 L 9.90625 -2.75 C 9.851562 -3.84375 9.828125 -5.117188 9.828125 -6.578125 L 9.828125 -12.171875 L 12.25 -12.171875 Z M 12.265625 0 "/></g></g></g></svg>